# xmcd
#
# Track frame offsets:
#	150
#	14729
#	28339
#	40982
#	58456
#	74014
#	92077
#	108100
#	122864
#	139701
#	148187
#	165508
#	176465
#	187201
#	199788
#	215627
#	228730
#	242543
#	257485
#	272594
#
# Disc length: 3797 seconds
#
# Revision: 1
# Processed by: cddbd v1.5.2PL0 Copyright (c) Steve Scherf et al.
# Submitted via: audiograbber 1.83.01
#
DISCID=3a0ed314
DTITLE=Various Artist - Über den Wolken Vol.4 CD2
DYEAR=2006
DGENRE=Schlager
TTITLE0=Chris Roberts - Hab ich Dir heute schon gesagt, dass ich Dich liebe
TTITLE1=Bill Ramsey - Ohne Krimi geht die Mimi nie ins Bett
TTITLE2=Gus Backus - Da sprach der alte Häuptling
TTITLE3=Vicky Leandros - Theo, wir fahr'n nach Lodz
TTITLE4=Bernd Clüver - Mexican Girl
TTITLE5=Jürgen Marcus - Ein Festival der Liebe
TTITLE6=Gaby Baginsky - Wer hat Dir das Küssen beigebracht
TTITLE7=IBO - Alter Schwede
TTITLE8=Gunter Gabriel - Komm unter meine Decke
TTITLE9=Stephan Sulke - Uschi 2004
TTITLE10=Bernhard Brink - Nie mehr will ich ohne Dich sein
TTITLE11=Peter Orloff - Es ist nie zu spät
TTITLE12=Dorthe - Junger Mann mit roten Rosen
TTITLE13=Peter Beil - Corinna, Corinna
TTITLE14=Lale Andersen - Lili Marleen
TTITLE15=Dalida - Am Tag als der Regen kam
TTITLE16=Elfi Graf - Herzen haben keine Fenster
TTITLE17=Jürgen Marcus - Das Glücksrad des Lebens
TTITLE18=Hans Albers - La Paloma
TTITLE19=Zillertaler Schürzenjäger - Schneewalzer
EXTD=
EXTT0=
EXTT1=
EXTT2=
EXTT3=
EXTT4=
EXTT5=
EXTT6=
EXTT7=
EXTT8=
EXTT9=
EXTT10=
EXTT11=
EXTT12=
EXTT13=
EXTT14=
EXTT15=
EXTT16=
EXTT17=
EXTT18=
EXTT19=
PLAYORDER=
